<svg width="63" height="36" viewBox="0 0 63 36" fill="none" xmlns="http://www.w3.org/2000/svg">
	<path fill-rule="evenodd" clip-rule="evenodd" d="M33 0V35H44C49.6752 35 54.9392 33.3729 58.3411 30.1186C61.7594 26.8643 63 22.451 63 17C63 5.62623 56.4954 0 44 0H33ZM40 29V6H44C47.5001 6 50.57 7.57996 52.5 9.5C54.4462 11.4038 55 13.6644 55 17C55 20.5309 54.4626 23.4497 52.5 25.5C50.5538 27.5501 47.4347 29 44 29H40Z" fill="white"/>
	<path d="M23.0119 35L33 6V0H28.7771L20 25L11 0.0655556H0V35.0656H7V15.7196V6L17 35.0656L23.0119 35Z" fill="white"/>
</svg>
